<svg width="1200" height="800" viewBox="0 0 1200 800" fill="none" xmlns="http://www.w3.org/2000/svg">
  <rect width="1200" height="800" rx="40" fill="#35597D"/>
  <path d="M84 605C186 492 305 432 442 428C576 425 691 471 821 456C942 442 1037 387 1113 328" stroke="#CFEAB0" stroke-width="18" stroke-linecap="round"/>
  <path d="M101 676C231 557 360 495 498 493C635 492 744 523 858 515C971 506 1046 465 1100 416" stroke="#99B7D9" stroke-width="10" stroke-linecap="round" stroke-dasharray="12 18"/>
  <rect x="120" y="505" width="220" height="130" rx="24" fill="#EEF5FA"/>
  <path d="M149 585H307" stroke="#D1DEEA" stroke-width="12" stroke-linecap="round"/>
  <path d="M149 548H252" stroke="#4D688C" stroke-width="12" stroke-linecap="round"/>
  <circle cx="473" cy="468" r="28" fill="#F5DCC5"/>
  <path d="M443 474C443 449 464 433 490 433C517 433 538 449 538 474V557H443V474Z" fill="#4D688C"/>
  <path d="M450 510H531V611C531 635 513 655 491 655C468 655 450 636 450 612V510Z" fill="#2B4A67"/>
  <rect x="440" y="471" width="102" height="20" rx="10" fill="#F4F6F9"/>
  <rect x="464" y="444" width="54" height="34" rx="16" fill="#F4F6F9"/>
  <path d="M477 655L460 721" stroke="#2B4A67" stroke-width="14" stroke-linecap="round"/>
  <path d="M503 655L521 720" stroke="#2B4A67" stroke-width="14" stroke-linecap="round"/>
  <path d="M450 557L410 620" stroke="#2B4A67" stroke-width="14" stroke-linecap="round"/>
  <path d="M531 557L571 620" stroke="#2B4A67" stroke-width="14" stroke-linecap="round"/>
  <circle cx="650" cy="472" r="27" fill="#F5D9C0"/>
  <path d="M620 478C620 452 641 436 667 436C694 436 714 452 714 478V560H620V478Z" fill="#50A844"/>
  <path d="M627 512H707V612C707 638 690 657 667 657C644 657 627 639 627 614V512Z" fill="#21415A"/>
  <rect x="617" y="475" width="102" height="20" rx="10" fill="#F4F6F9"/>
  <rect x="641" y="448" width="54" height="34" rx="16" fill="#F4F6F9"/>
  <path d="M654 657L638 723" stroke="#21415A" stroke-width="14" stroke-linecap="round"/>
  <path d="M680 657L698 722" stroke="#21415A" stroke-width="14" stroke-linecap="round"/>
  <path d="M627 560L585 624" stroke="#21415A" stroke-width="14" stroke-linecap="round"/>
  <path d="M708 560L748 622" stroke="#21415A" stroke-width="14" stroke-linecap="round"/>
  <rect x="783" y="400" width="227" height="167" rx="26" fill="#EEF5FA"/>
  <circle cx="839" cy="456" r="24" fill="#D8E4F0"/>
  <path d="M828 456H851" stroke="#4D688C" stroke-width="8" stroke-linecap="round"/>
  <path d="M839 445V467" stroke="#4D688C" stroke-width="8" stroke-linecap="round"/>
  <path d="M889 455H970" stroke="#4CA649" stroke-width="12" stroke-linecap="round"/>
  <path d="M889 496H947" stroke="#99B7D9" stroke-width="10" stroke-linecap="round"/>
</svg>
