<svg width="1200" height="800" viewBox="0 0 1200 800" fill="none" xmlns="http://www.w3.org/2000/svg"><rect width="1200" height="800" fill="#EEF4F7"/><rect x="50" y="50" width="1100" height="700" rx="40" fill="url(#a)"/><path d="M109 614C254 514 378 475 496 481C615 487 720 436 841 433C955 430 1030 467 1090 541" stroke="#C3E5B7" stroke-width="14" stroke-linecap="round"/><path d="M142 671C283 565 409 530 515 534C635 540 741 485 852 483C949 481 1022 511 1073 568" stroke="#91ABCA" stroke-width="9" stroke-linecap="round" stroke-dasharray="12 18"/><rect x="206" y="171" width="336" height="358" rx="30" fill="#F8FBFF"/><rect x="254" y="235" width="238" height="22" rx="11" fill="#4D688C"/><rect x="254" y="287" width="190" height="18" rx="9" fill="#D8E3F1"/><rect x="254" y="334" width="214" height="18" rx="9" fill="#D8E3F1"/><rect x="254" y="381" width="164" height="18" rx="9" fill="#D8E3F1"/><path d="M255 447L316 395L370 420L489 301" stroke="#4CA649" stroke-width="14" stroke-linecap="round" stroke-linejoin="round"/><defs><linearGradient id="a" x1="92" y1="86" x2="1094" y2="716" gradientUnits="userSpaceOnUse"><stop stop-color="#173149"/><stop offset="1" stop-color="#355A76"/></linearGradient></defs></svg>
